# xmcd
#
# Track frame offsets: 
#        150
#        12985
#        29199
#        44756
#        59062
#        72844
#        87951
#        102295
#        115978
#        131500
#        146911
#
# Disc length: 2144 seconds
#
# Revision: 2
# Processed by: cddbd v1.5.2PL0 Copyright (c) Steve Scherf et al.
# Submitted via: ExactAudioCopy v1.3
#
DISCID=ab085e0b
DTITLE=Masizzo - Algo Especial
DYEAR=2001
DGENRE=Norteño, Tejano
TTITLE0=Te Necesito
TTITLE1=Vuelve A Mi
TTITLE2=Como Duele
TTITLE3=Adios Amor
TTITLE4=Dime Que Hice Mal
TTITLE5=Te He Prometido
TTITLE6=No Te Vayas
TTITLE7=Por Amarte
TTITLE8=Mas Que Amor
TTITLE9=Solo Tu Estas
TTITLE10=Siento Amor
EXTD=
EXTT0=
EXTT1=
EXTT2=
EXTT3=
EXTT4=
EXTT5=
EXTT6=
EXTT7=
EXTT8=
EXTT9=
EXTT10=
PLAYORDER=
